<svg width="53" height="49" viewBox="0 0 53 49" fill="none" xmlns="http://www.w3.org/2000/svg">
<path d="M9.4095 2.25481C20.6737 -0.751604 32.5281 -0.751604 43.7923 2.25481C47.5736 3.2638 50.4615 6.36222 51.2122 10.2152C52.5422 17.0432 52.5422 24.066 51.2122 30.8941C50.4617 34.747 47.5737 37.8454 43.7923 38.8554C43.5067 38.9317 43.2205 39.0061 42.9339 39.0785C42.3669 39.2214 41.9664 39.7372 41.9664 40.3244V48.4863C41.9664 48.686 41.8504 48.868 41.6699 48.9522C41.4895 49.0363 41.2758 49.0079 41.1239 48.8788L32.8282 41.8501C32.129 41.258 31.2296 40.9556 30.316 41.0065C23.2777 41.3999 16.2217 40.6737 9.4095 38.8554C5.62808 37.8454 2.74012 34.747 1.98965 30.8941C0.659699 24.066 0.659699 17.0432 1.98965 10.2152C2.74032 6.36222 5.62827 3.2638 9.4095 2.25481ZM31.2107 30.8324C31.4917 30.8324 31.7229 30.6005 31.7229 30.3186V20.5546H41.4542C41.7352 20.5546 41.9664 20.3227 41.9664 20.0408V10.7906C41.9664 10.5088 41.7352 10.2768 41.4542 10.2768H11.7481C11.4671 10.2768 11.2359 10.5088 11.2359 10.7906V20.0408C11.2359 20.3227 11.4671 20.5546 11.7481 20.5546H21.4795V30.3186C21.4795 30.6005 21.7106 30.8324 21.9915 30.8324H31.2107Z" fill="#FC3234"/>
<rect width="31.8985" height="31.8985" transform="translate(10.7031 4.68359)" fill="#FC3234"/>
<path fill-rule="evenodd" clip-rule="evenodd" d="M38.4365 10.2345C38.4365 9.46859 37.8156 8.84766 37.0496 8.84766H16.2463C15.4803 8.84766 14.8594 9.46859 14.8594 10.2345V15.0887C14.8594 15.8546 15.4803 16.4756 16.2463 16.4756H21.1043C21.8702 16.4756 22.4912 17.0965 22.4912 17.8625L22.4912 31.0311C22.4912 31.7971 23.1121 32.418 23.878 32.418H29.4256C30.1916 32.418 30.8125 31.7971 30.8125 31.0311L30.8125 17.8625C30.8125 17.0965 31.4334 16.4756 32.1994 16.4756H37.0496C37.8156 16.4756 38.4365 15.8546 38.4365 15.0887V10.2345Z" fill="white"/>
<path d="M9.2638 2.21578C20.333 -0.738594 31.9822 -0.738594 43.0514 2.21578C46.7673 3.20731 49.6053 6.25209 50.3429 10.0384C51.6499 16.7482 51.6499 23.6495 50.3429 30.3593C49.6054 34.1456 46.7674 37.1903 43.0514 38.1828C42.7708 38.2578 42.4895 38.3309 42.2079 38.4021C41.6507 38.5425 41.2572 39.0493 41.2572 39.6264V47.647C41.2572 47.8432 41.1431 48.0221 40.9658 48.1048C40.7885 48.1875 40.5785 48.1596 40.4292 48.0327L32.2771 41.1257C31.5901 40.5438 30.7062 40.2467 29.8084 40.2967C22.892 40.6833 15.9581 39.9697 9.2638 38.1828C5.54783 37.1903 2.70987 34.1456 1.97239 30.3593C0.665454 23.6495 0.665454 16.7482 1.97239 10.0384C2.71006 6.25209 5.54803 3.20731 9.2638 2.21578ZM30.6876 30.2987C30.9638 30.2987 31.191 30.0708 31.191 29.7938V20.1988H40.7539C41.0299 20.1988 41.2572 19.9709 41.2572 19.6939V10.6038C41.2572 10.3269 41.0299 10.0989 40.7539 10.0989H11.5619C11.2858 10.0989 11.0586 10.3269 11.0586 10.6038V19.6939C11.0586 19.9709 11.2858 20.1988 11.5619 20.1988H21.1248V29.7938C21.1248 30.0708 21.352 30.2987 21.6281 30.2987H30.6876Z" fill="#FC3234"/>
<path fill-rule="evenodd" clip-rule="evenodd" d="M38.4365 10.2306C38.4365 9.46468 37.8156 8.84375 37.0496 8.84375H16.2463C15.4803 8.84375 14.8594 9.46468 14.8594 10.2306V15.0848C14.8594 15.8507 15.4803 16.4717 16.2463 16.4717H37.0496C37.8156 16.4717 38.4365 15.8507 38.4365 15.0848V10.2306ZM29.4256 32.4219C30.1916 32.4219 30.8125 31.801 30.8125 31.035L30.8125 17.8595C30.8125 17.0936 30.1916 16.4727 29.4256 16.4727L23.878 16.4727C23.1121 16.4727 22.4912 17.0936 22.4912 17.8595L22.4912 31.035C22.4912 31.801 23.1121 32.4219 23.878 32.4219H29.4256Z" fill="white"/>
</svg>
